<svg width="21" height="18" viewBox="0 0 21 18" fill="none" xmlns="http://www.w3.org/2000/svg">
<path d="M16.5724 12.952L21 16.7462L19.5372 18L15.1106 14.2049C13.4635 15.3366 11.4149 15.9522 9.30393 15.9496C4.16816 15.9496 0 12.3769 0 7.9748C0 3.57271 4.16816 0 9.30393 0C14.4397 0 18.6079 3.57271 18.6079 7.9748C18.6109 9.78419 17.8927 11.5402 16.5724 12.952ZM14.4986 12.2945C15.8106 11.138 16.5433 9.58786 16.5403 7.9748C16.5403 4.54829 13.3015 1.77218 9.30393 1.77218C5.30634 1.77218 2.06754 4.54829 2.06754 7.9748C2.06754 11.4013 5.30634 14.1774 9.30393 14.1774C11.1858 14.18 12.9944 13.5519 14.3436 12.4274L14.4986 12.2945Z" fill="white" fill-opacity="0.25"/>
</svg>
